<svg width="289" height="33" viewBox="0 0 289 33" fill="none" xmlns="http://www.w3.org/2000/svg">
<path d="M120 0C121.105 0 122 0.895431 122 2V31C122 32.1046 121.105 33 120 33H2C0.895431 33 3.22132e-08 32.1046 0 31V2C3.22133e-08 0.895431 0.895431 0 2 0H120ZM79.6211 10.7803C78.6319 10.7803 77.7642 11.0043 77.0176 11.4521C76.2709 11.8908 75.6876 12.5022 75.2676 13.2861C74.8476 14.0608 74.6367 14.966 74.6367 16.002C74.6367 17.038 74.8476 17.9431 75.2676 18.7178C75.6876 19.4831 76.2849 20.0804 77.0596 20.5098C77.8342 20.9297 78.7535 21.1396 79.8174 21.1396C80.7599 21.1396 81.5813 20.9997 82.2812 20.7197C82.8938 20.4747 83.4419 20.1297 83.9258 19.6846L84.1289 19.4883V15.5537H79.9014V16.9824H82.3096V18.876C82.067 19.1285 81.7592 19.3238 81.3848 19.46C80.9742 19.5999 80.4842 19.6699 79.915 19.6699C79.1778 19.6699 78.5524 19.5256 78.0391 19.2363C77.5351 18.947 77.1476 18.5263 76.877 17.9756C76.6157 17.4157 76.4854 16.7438 76.4854 15.96C76.4854 15.1948 76.6157 14.5369 76.877 13.9863C77.1383 13.4357 77.5074 13.0106 77.9834 12.7119C78.4593 12.4133 79.0148 12.2637 79.6494 12.2637C80.3493 12.2637 80.9328 12.4369 81.3994 12.7822C81.8659 13.1275 82.1459 13.5991 82.2393 14.1963H84.0596C83.9756 13.5243 83.7324 12.9356 83.3311 12.4316C82.9391 11.9184 82.4212 11.5168 81.7773 11.2275C81.1427 10.9289 80.4238 10.7803 79.6211 10.7803ZM85.5801 10.9199V16.6465C85.5802 18.0929 85.931 19.203 86.6309 19.9775C87.3309 20.7522 88.3619 21.1396 89.7246 21.1396C91.0966 21.1396 92.133 20.7522 92.833 19.9775C93.542 19.2029 93.8965 18.0971 93.8965 16.6602V10.9199H92.0762V16.9258C92.0762 17.8404 91.8716 18.527 91.4609 18.9844C91.0503 19.4324 90.4756 19.6562 89.7383 19.6562C89.0012 19.6562 88.4272 19.4322 88.0166 18.9844C87.606 18.5271 87.4004 17.8361 87.4004 16.9121V10.9199H85.5801ZM13.1016 10.9199L9.3916 21H11.1836L12.0498 18.4941H16.1309L16.9941 21H18.8701L15.1738 10.9199H13.1016ZM19.8887 10.9199V21H21.709V16.7578H21.9561L25.6562 21H28.1768L24.084 16.7578H24.1445C24.8632 16.7578 25.4885 16.6362 26.0205 16.3936C26.5524 16.1509 26.9583 15.8106 27.2383 15.3721C27.5276 14.9334 27.6729 14.4244 27.6729 13.8457C27.6728 13.2578 27.5276 12.7443 27.2383 12.3057C26.9583 11.8672 26.5523 11.5268 26.0205 11.2842C25.4885 11.0415 24.8632 10.9199 24.1445 10.9199H19.8887ZM32.4609 10.9199L28.751 21H30.543L31.4092 18.4941H35.4902L36.3535 21H38.2295L34.5332 10.9199H32.4609ZM39.29 10.9199V21H43.8955C44.5207 21 45.0623 20.888 45.5195 20.6641C45.9862 20.4401 46.3457 20.1226 46.5977 19.7119C46.859 19.3012 46.9902 18.8202 46.9902 18.2695C46.9902 17.7284 46.8642 17.2523 46.6123 16.8418C46.3697 16.4312 46.0381 16.1136 45.6182 15.8896C45.461 15.8023 45.2972 15.7314 45.127 15.6768C45.2382 15.638 45.3464 15.5932 45.4502 15.54C45.8328 15.344 46.1364 15.0685 46.3604 14.7139C46.5935 14.35 46.7099 13.9254 46.71 13.4404C46.71 12.6658 46.4343 12.0544 45.8838 11.6064C45.3425 11.1491 44.6192 10.9199 43.7139 10.9199H39.29ZM48.3135 10.9199V21H50.1338V10.9199H48.3135ZM55.1016 10.9199L51.3916 21H53.1836L54.0498 18.4941H58.1309L58.9941 21H60.8701L57.1738 10.9199H55.1016ZM62.1357 10.9199V21H63.8994V13.1592L68.2959 21H70.5498V10.9199H68.7852V18.7588L64.3896 10.9199H62.1357ZM95.5361 10.9199V21H102.312V19.5576H97.3564V10.9199H95.5361ZM103.78 10.9199V21H105.601V16.9541H110.318V15.5117H105.601V12.3623H110.654V10.9199H103.78ZM43.4482 16.3936C43.9801 16.3936 44.3957 16.5432 44.6943 16.8418C44.9928 17.1404 45.1415 17.5465 45.1416 18.0596C45.1416 18.5542 45.0017 18.947 44.7217 19.2363C44.4418 19.5161 44.0452 19.6562 43.5322 19.6562H41.1104V16.3936H43.4482ZM57.6299 17.0381H54.5537L56.0947 12.582L57.6299 17.0381ZM34.9893 17.0381H31.9131L33.4541 12.582L34.9893 17.0381ZM15.6299 17.0381H12.5537L14.0947 12.582L15.6299 17.0381ZM24.0889 12.3623C24.6859 12.3624 25.1384 12.4927 25.4463 12.7539C25.7542 13.0059 25.9081 13.3698 25.9082 13.8457C25.9082 14.3216 25.7498 14.6952 25.4326 14.9658C25.1247 15.2364 24.6767 15.372 24.0889 15.3721H21.709V12.3623H24.0889ZM43.3779 12.2637C43.8726 12.2637 44.2461 12.3809 44.498 12.6143C44.7592 12.8475 44.8896 13.188 44.8896 13.6357C44.8896 14.0931 44.7541 14.4429 44.4834 14.6855C44.2128 14.9281 43.8261 15.0497 43.3223 15.0498H41.1104V12.2637H43.3779Z" fill="#989898"/>
<path d="M234 0C235.105 0 236 0.895431 236 2V31C236 32.1046 235.105 33 234 33H130C128.895 33 128 32.1046 128 31V2C128 0.895431 128.895 8.05319e-09 130 0H234ZM215.019 10.7656C214.291 10.7656 213.651 10.8829 213.101 11.1162C212.559 11.3495 212.139 11.681 211.841 12.1104C211.542 12.5397 211.393 13.0434 211.393 13.6221C211.393 14.3126 211.607 14.8865 212.036 15.3438C212.475 15.801 213.156 16.1702 214.08 16.4502L215.9 16.9961C216.386 17.1361 216.731 17.318 216.937 17.542C217.142 17.766 217.244 18.0599 217.244 18.4238C217.244 18.8345 217.076 19.1563 216.74 19.3896C216.414 19.6136 215.938 19.7256 215.312 19.7256C214.556 19.7256 213.945 19.5577 213.479 19.2217C213.012 18.8764 212.736 18.3961 212.652 17.7803H210.902C211.033 18.8441 211.472 19.6699 212.219 20.2578C212.975 20.8364 213.988 21.126 215.257 21.126C216.442 21.1259 217.361 20.8697 218.015 20.3564C218.677 19.8431 219.009 19.1101 219.009 18.1582C219.009 17.4396 218.799 16.8465 218.379 16.3799C217.959 15.9132 217.286 15.5451 216.362 15.2744L214.515 14.7139C213.992 14.5553 213.633 14.3689 213.437 14.1543C213.25 13.9397 213.156 13.6781 213.156 13.3701C213.156 12.9968 213.315 12.7029 213.633 12.4883C213.95 12.2737 214.38 12.166 214.921 12.166C215.537 12.1661 216.027 12.3017 216.391 12.5723C216.754 12.8336 216.988 13.244 217.091 13.8037H218.841C218.747 12.8705 218.364 12.1331 217.692 11.5918C217.03 11.0412 216.138 10.7656 215.019 10.7656ZM135.868 10.9199V21H137.576V12.4932L140.264 21H142.21L144.912 12.4521V21H146.704V10.9199H143.862L141.279 19.0674L138.696 10.9199H135.868ZM148.446 10.9199V21H150.267V10.9199H148.446ZM152.001 10.9199V21H155.725C156.817 21 157.769 20.7901 158.581 20.3701C159.402 19.9502 160.042 19.3623 160.499 18.6064C160.956 17.8411 161.185 16.949 161.185 15.9316C161.185 14.9145 160.956 14.0327 160.499 13.2861C160.051 12.5301 159.416 11.9468 158.595 11.5361C157.773 11.1255 156.812 10.9199 155.711 10.9199H152.001ZM162.569 10.9199V21H166.293C167.385 21 168.337 20.7901 169.149 20.3701C169.971 19.9502 170.61 19.3623 171.067 18.6064C171.525 17.8411 171.753 16.949 171.753 15.9316C171.753 14.9145 171.525 14.0327 171.067 13.2861C170.619 12.5301 169.984 11.9468 169.163 11.5361C168.342 11.1255 167.381 10.9199 166.279 10.9199H162.569ZM173.138 10.9199V21H179.913V19.5576H174.958V10.9199H173.138ZM181.382 10.9199V21H188.634V19.5576H183.202V16.5195H188.144V15.1064H183.202V12.3623H188.479V10.9199H181.382ZM192.907 10.9199V21H200.159V19.5576H194.728V16.5195H199.669V15.1064H194.728V12.3623H200.005V10.9199H192.907ZM204.795 10.9199L201.085 21H202.877L203.743 18.4941H207.824L208.688 21H210.563L206.867 10.9199H204.795ZM219.487 10.9199V12.3623H222.834V21H224.653V12.3623H228V10.9199H219.487ZM166.279 12.376C167.054 12.376 167.707 12.5256 168.239 12.8242C168.78 13.1135 169.191 13.5239 169.471 14.0557C169.76 14.5877 169.905 15.2043 169.905 15.9043C169.905 16.6135 169.76 17.2434 169.471 17.7939C169.191 18.3445 168.781 18.7741 168.239 19.082C167.698 19.39 167.045 19.5439 166.279 19.5439H164.39V12.376H166.279ZM155.711 12.376C156.486 12.376 157.139 12.5256 157.671 12.8242C158.212 13.1135 158.622 13.5239 158.902 14.0557C159.192 14.5877 159.337 15.2043 159.337 15.9043C159.337 16.6135 159.192 17.2434 158.902 17.7939C158.622 18.3445 158.212 18.7741 157.671 19.082C157.13 19.39 156.476 19.5439 155.711 19.5439H153.821V12.376H155.711ZM207.323 17.0381H204.247L205.788 12.582L207.323 17.0381Z" fill="#989898"/>
<path d="M287 0C288.105 0 289 0.895431 289 2V31C289 32.1046 288.105 33 287 33H244C242.895 33 242 32.1046 242 31V2C242 0.895431 242.895 0 244 0H287ZM263.325 10.7656C262.597 10.7656 261.958 10.8829 261.407 11.1162C260.866 11.3495 260.446 11.681 260.147 12.1104C259.849 12.5397 259.699 13.0434 259.699 13.6221C259.699 14.3126 259.914 14.8865 260.343 15.3438C260.781 15.801 261.463 16.1702 262.387 16.4502L264.207 16.9961C264.692 17.1361 265.038 17.318 265.243 17.542C265.448 17.766 265.551 18.0599 265.551 18.4238C265.551 18.8345 265.383 19.1563 265.047 19.3896C264.72 19.6136 264.244 19.7256 263.619 19.7256C262.863 19.7256 262.252 19.5577 261.785 19.2217C261.319 18.8764 261.043 18.3961 260.959 17.7803H259.209C259.34 18.8441 259.779 19.6699 260.525 20.2578C261.281 20.8364 262.294 21.126 263.563 21.126C264.749 21.1259 265.668 20.8697 266.321 20.3564C266.984 19.8431 267.315 19.1101 267.315 18.1582C267.315 17.4396 267.105 16.8465 266.686 16.3799C266.266 15.9132 265.593 15.5451 264.669 15.2744L262.821 14.7139C262.299 14.5553 261.939 14.3689 261.743 14.1543C261.557 13.9397 261.463 13.6781 261.463 13.3701C261.463 12.9968 261.622 12.7029 261.939 12.4883C262.257 12.2737 262.686 12.166 263.228 12.166C263.843 12.1661 264.333 12.3017 264.697 12.5723C265.061 12.8336 265.295 13.244 265.397 13.8037H267.147C267.054 12.8705 266.671 12.1331 265.999 11.5918C265.336 11.0412 264.445 10.7656 263.325 10.7656ZM253.102 10.9199L249.392 21H251.184L252.05 18.4941H256.131L256.994 21H258.87L255.174 10.9199H253.102ZM268.571 10.9199V21H270.392V10.9199H268.571ZM275.359 10.9199L271.649 21H273.441L274.308 18.4941H278.389L279.252 21H281.128L277.432 10.9199H275.359ZM277.888 17.0381H274.812L276.353 12.582L277.888 17.0381ZM255.63 17.0381H252.554L254.095 12.582L255.63 17.0381Z" fill="#989898"/>
</svg>
